<svg width="250" height="81" viewBox="0 0 250 81" fill="none" xmlns="http://www.w3.org/2000/svg">
<circle cx="40.5" cy="40.5" r="38.5" fill="#052954" stroke="#D6AA54" stroke-width="4"/>
<path d="M50.7227 51.6406H29.2773L24.4609 65H17.5L37.0469 13.8125H42.9531L62.5352 65H55.6094L50.7227 51.6406ZM31.3164 46.0859H48.7188L40 22.1445L31.3164 46.0859Z" fill="#F9D6AC" fill-opacity="0.29"/>
<path d="M107.781 51C107.615 50.6667 107.479 50.0729 107.375 49.2188C106.031 50.6146 104.427 51.3125 102.562 51.3125C100.896 51.3125 99.526 50.8438 98.4531 49.9062C97.3906 48.9583 96.8594 47.7604 96.8594 46.3125C96.8594 44.5521 97.526 43.1875 98.8594 42.2188C100.203 41.2396 102.089 40.75 104.516 40.75H107.328V39.4219C107.328 38.4115 107.026 37.6094 106.422 37.0156C105.818 36.4115 104.927 36.1094 103.75 36.1094C102.719 36.1094 101.854 36.3698 101.156 36.8906C100.458 37.4115 100.109 38.0417 100.109 38.7812H97.2031C97.2031 37.9375 97.5 37.125 98.0938 36.3438C98.6979 35.5521 99.5104 34.9271 100.531 34.4688C101.562 34.0104 102.693 33.7812 103.922 33.7812C105.87 33.7812 107.396 34.2708 108.5 35.25C109.604 36.2188 110.177 37.5573 110.219 39.2656V47.0469C110.219 48.599 110.417 49.8333 110.812 50.75V51H107.781ZM102.984 48.7969C103.891 48.7969 104.75 48.5625 105.562 48.0938C106.375 47.625 106.964 47.0156 107.328 46.2656V42.7969H105.062C101.521 42.7969 99.75 43.8333 99.75 45.9062C99.75 46.8125 100.052 47.5208 100.656 48.0312C101.26 48.5417 102.036 48.7969 102.984 48.7969ZM117.891 51H115V27H117.891V51ZM136.844 42.7344C136.844 45.3177 136.25 47.3958 135.062 48.9688C133.875 50.5312 132.281 51.3125 130.281 51.3125C128.146 51.3125 126.495 50.5573 125.328 49.0469L125.188 51H122.531V27H125.422V35.9531C126.589 34.5052 128.198 33.7812 130.25 33.7812C132.302 33.7812 133.911 34.5573 135.078 36.1094C136.255 37.6615 136.844 39.7865 136.844 42.4844V42.7344ZM133.953 42.4062C133.953 40.4375 133.573 38.9167 132.812 37.8438C132.052 36.7708 130.958 36.2344 129.531 36.2344C127.625 36.2344 126.255 37.1198 125.422 38.8906V46.2031C126.307 47.974 127.688 48.8594 129.562 48.8594C130.948 48.8594 132.026 48.3229 132.797 47.25C133.568 46.1771 133.953 44.5625 133.953 42.4062ZM150.938 51C150.771 50.6667 150.635 50.0729 150.531 49.2188C149.188 50.6146 147.583 51.3125 145.719 51.3125C144.052 51.3125 142.682 50.8438 141.609 49.9062C140.547 48.9583 140.016 47.7604 140.016 46.3125C140.016 44.5521 140.682 43.1875 142.016 42.2188C143.359 41.2396 145.245 40.75 147.672 40.75H150.484V39.4219C150.484 38.4115 150.182 37.6094 149.578 37.0156C148.974 36.4115 148.083 36.1094 146.906 36.1094C145.875 36.1094 145.01 36.3698 144.312 36.8906C143.615 37.4115 143.266 38.0417 143.266 38.7812H140.359C140.359 37.9375 140.656 37.125 141.25 36.3438C141.854 35.5521 142.667 34.9271 143.688 34.4688C144.719 34.0104 145.849 33.7812 147.078 33.7812C149.026 33.7812 150.552 34.2708 151.656 35.25C152.76 36.2188 153.333 37.5573 153.375 39.2656V47.0469C153.375 48.599 153.573 49.8333 153.969 50.75V51H150.938ZM146.141 48.7969C147.047 48.7969 147.906 48.5625 148.719 48.0938C149.531 47.625 150.12 47.0156 150.484 46.2656V42.7969H148.219C144.677 42.7969 142.906 43.8333 142.906 45.9062C142.906 46.8125 143.208 47.5208 143.812 48.0312C144.417 48.5417 145.193 48.7969 146.141 48.7969ZM168.344 51C168.177 50.6667 168.042 50.0729 167.938 49.2188C166.594 50.6146 164.99 51.3125 163.125 51.3125C161.458 51.3125 160.089 50.8438 159.016 49.9062C157.953 48.9583 157.422 47.7604 157.422 46.3125C157.422 44.5521 158.089 43.1875 159.422 42.2188C160.766 41.2396 162.651 40.75 165.078 40.75H167.891V39.4219C167.891 38.4115 167.589 37.6094 166.984 37.0156C166.38 36.4115 165.49 36.1094 164.312 36.1094C163.281 36.1094 162.417 36.3698 161.719 36.8906C161.021 37.4115 160.672 38.0417 160.672 38.7812H157.766C157.766 37.9375 158.062 37.125 158.656 36.3438C159.26 35.5521 160.073 34.9271 161.094 34.4688C162.125 34.0104 163.255 33.7812 164.484 33.7812C166.432 33.7812 167.958 34.2708 169.062 35.25C170.167 36.2188 170.74 37.5573 170.781 39.2656V47.0469C170.781 48.599 170.979 49.8333 171.375 50.75V51H168.344ZM163.547 48.7969C164.453 48.7969 165.312 48.5625 166.125 48.0938C166.938 47.625 167.526 47.0156 167.891 46.2656V42.7969H165.625C162.083 42.7969 160.312 43.8333 160.312 45.9062C160.312 46.8125 160.615 47.5208 161.219 48.0312C161.823 48.5417 162.599 48.7969 163.547 48.7969ZM189.625 42.7344C189.625 45.3177 189.031 47.3958 187.844 48.9688C186.656 50.5312 185.062 51.3125 183.062 51.3125C180.927 51.3125 179.276 50.5573 178.109 49.0469L177.969 51H175.312V27H178.203V35.9531C179.37 34.5052 180.979 33.7812 183.031 33.7812C185.083 33.7812 186.693 34.5573 187.859 36.1094C189.036 37.6615 189.625 39.7865 189.625 42.4844V42.7344ZM186.734 42.4062C186.734 40.4375 186.354 38.9167 185.594 37.8438C184.833 36.7708 183.74 36.2344 182.312 36.2344C180.406 36.2344 179.036 37.1198 178.203 38.8906V46.2031C179.089 47.974 180.469 48.8594 182.344 48.8594C183.729 48.8594 184.807 48.3229 185.578 47.25C186.349 46.1771 186.734 44.5625 186.734 42.4062ZM193.344 49.4844C193.344 48.9844 193.49 48.5677 193.781 48.2344C194.083 47.901 194.531 47.7344 195.125 47.7344C195.719 47.7344 196.167 47.901 196.469 48.2344C196.781 48.5677 196.938 48.9844 196.938 49.4844C196.938 49.9635 196.781 50.3646 196.469 50.6875C196.167 51.0104 195.719 51.1719 195.125 51.1719C194.531 51.1719 194.083 51.0104 193.781 50.6875C193.49 50.3646 193.344 49.9635 193.344 49.4844ZM201.016 42.4062C201.016 39.8125 201.63 37.7292 202.859 36.1562C204.089 34.5729 205.698 33.7812 207.688 33.7812C209.667 33.7812 211.234 34.4583 212.391 35.8125V27H215.281V51H212.625L212.484 49.1875C211.328 50.6042 209.719 51.3125 207.656 51.3125C205.698 51.3125 204.099 50.5104 202.859 48.9062C201.63 47.3021 201.016 45.2083 201.016 42.625V42.4062ZM203.906 42.7344C203.906 44.651 204.302 46.151 205.094 47.2344C205.885 48.3177 206.979 48.8594 208.375 48.8594C210.208 48.8594 211.547 48.0365 212.391 46.3906V38.625C211.526 37.0312 210.198 36.2344 208.406 36.2344C206.99 36.2344 205.885 36.7812 205.094 37.875C204.302 38.9688 203.906 40.5885 203.906 42.7344ZM226.797 51.3125C224.505 51.3125 222.641 50.5625 221.203 49.0625C219.766 47.5521 219.047 45.5365 219.047 43.0156V42.4844C219.047 40.8073 219.365 39.3125 220 38C220.646 36.6771 221.542 35.6458 222.688 34.9062C223.844 34.1562 225.094 33.7812 226.438 33.7812C228.635 33.7812 230.344 34.5052 231.562 35.9531C232.781 37.401 233.391 39.474 233.391 42.1719V43.375H221.938C221.979 45.0417 222.464 46.3906 223.391 47.4219C224.328 48.4427 225.516 48.9531 226.953 48.9531C227.974 48.9531 228.839 48.7448 229.547 48.3281C230.255 47.9115 230.875 47.3594 231.406 46.6719L233.172 48.0469C231.755 50.224 229.63 51.3125 226.797 51.3125ZM226.438 36.1562C225.271 36.1562 224.292 36.5833 223.5 37.4375C222.708 38.2812 222.219 39.4688 222.031 41H230.5V40.7812C230.417 39.3125 230.021 38.1771 229.312 37.375C228.604 36.5625 227.646 36.1562 226.438 36.1562ZM242.109 47.0781L246.297 34.0938H249.25L243.188 51H240.984L234.859 34.0938H237.812L242.109 47.0781Z" fill="white"/>
<path d="M14.5703 50.5791C14.5703 50.1104 14.707 49.7197 14.9805 49.4072C15.2637 49.0947 15.6836 48.9385 16.2402 48.9385C16.7969 48.9385 17.2168 49.0947 17.5 49.4072C17.793 49.7197 17.9395 50.1104 17.9395 50.5791C17.9395 51.0283 17.793 51.4043 17.5 51.707C17.2168 52.0098 16.7969 52.1611 16.2402 52.1611C15.6836 52.1611 15.2637 52.0098 14.9805 51.707C14.707 51.4043 14.5703 51.0283 14.5703 50.5791ZM21.7627 43.9434C21.7627 41.5117 22.3389 39.5586 23.4912 38.084C24.6436 36.5996 26.1523 35.8574 28.0176 35.8574C29.873 35.8574 31.3428 36.4922 32.4268 37.7617V29.5H35.1367V52H32.6465L32.5146 50.3008C31.4307 51.6289 29.9219 52.293 27.9883 52.293C26.1523 52.293 24.6533 51.541 23.4912 50.0371C22.3389 48.5332 21.7627 46.5703 21.7627 44.1484V43.9434ZM24.4727 44.251C24.4727 46.0479 24.8438 47.4541 25.5859 48.4697C26.3281 49.4854 27.3535 49.9932 28.6621 49.9932C30.3809 49.9932 31.6357 49.2217 32.4268 47.6787V40.3984C31.6162 38.9043 30.3711 38.1572 28.6914 38.1572C27.3633 38.1572 26.3281 38.6699 25.5859 39.6953C24.8438 40.7207 24.4727 42.2393 24.4727 44.251ZM45.9326 52.293C43.7842 52.293 42.0361 51.5898 40.6885 50.1836C39.3408 48.7676 38.667 46.8779 38.667 44.5146V44.0166C38.667 42.4443 38.9648 41.043 39.5605 39.8125C40.166 38.5723 41.0059 37.6055 42.0801 36.9121C43.1641 36.209 44.3359 35.8574 45.5957 35.8574C47.6562 35.8574 49.2578 36.5361 50.4004 37.8936C51.543 39.251 52.1143 41.1943 52.1143 43.7236V44.8516H41.377C41.416 46.4141 41.8701 47.6787 42.7393 48.6455C43.6182 49.6025 44.7314 50.0811 46.0791 50.0811C47.0361 50.0811 47.8467 49.8857 48.5107 49.4951C49.1748 49.1045 49.7559 48.5869 50.2539 47.9424L51.9092 49.2314C50.5811 51.2725 48.5889 52.293 45.9326 52.293ZM45.5957 38.084C44.502 38.084 43.584 38.4844 42.8418 39.2852C42.0996 40.0762 41.6406 41.1895 41.4648 42.625H49.4043V42.4199C49.3262 41.043 48.9551 39.9785 48.291 39.2266C47.627 38.4648 46.7285 38.084 45.5957 38.084ZM60.2881 48.3232L64.2139 36.1504H66.9824L61.2988 52H59.2334L53.4912 36.1504H56.2598L60.2881 48.3232Z" fill="white" fill-opacity="0.8"/>
</svg>
