<svg width="37" height="37" viewBox="0 0 37 37" fill="none" xmlns="http://www.w3.org/2000/svg">
<path d="M24.6667 12.3333C27.1199 12.3333 29.4727 13.3079 31.2074 15.0426C32.9421 16.7773 33.9167 19.1301 33.9167 21.5833V32.375H27.75V21.5833C27.75 20.7656 27.4251 19.9813 26.8469 19.4031C26.2687 18.8249 25.4844 18.5 24.6667 18.5C23.8489 18.5 23.0647 18.8249 22.4864 19.4031C21.9082 19.9813 21.5833 20.7656 21.5833 21.5833V32.375H15.4167V21.5833C15.4167 19.1301 16.3912 16.7773 18.1259 15.0426C19.8606 13.3079 22.2134 12.3333 24.6667 12.3333V12.3333Z" stroke="white" stroke-width="2" stroke-linecap="round" stroke-linejoin="round"/>
<path d="M9.25 13.875H3.08333V32.375H9.25V13.875Z" stroke="white" stroke-width="2" stroke-linecap="round" stroke-linejoin="round"/>
<path d="M6.16667 9.25C7.86955 9.25 9.25 7.86955 9.25 6.16667C9.25 4.46379 7.86955 3.08334 6.16667 3.08334C4.46379 3.08334 3.08333 4.46379 3.08333 6.16667C3.08333 7.86955 4.46379 9.25 6.16667 9.25Z" stroke="white" stroke-width="2" stroke-linecap="round" stroke-linejoin="round"/>
</svg>
